<mxfile host="app.diagrams.net" modified="2022-03-15T09:37:03.792Z" agent="5.0 (Windows NT 10.0; Win64; x64) AppleWebKit/537.36 (KHTML, like Gecko) Chrome/99.0.4844.51 Safari/537.36 Edg/99.0.1150.39" etag="1N6uviW_fXhE1Kzig2VX" version="17.1.0" type="github">
  <diagram id="dxVIzOVv_u5MUlThNv-4" name="Page-1">
    <mxGraphModel dx="1550" dy="867" grid="1" gridSize="10" guides="1" tooltips="1" connect="1" arrows="1" fold="1" page="1" pageScale="1" pageWidth="827" pageHeight="1169" math="0" shadow="0">
      <root>
        <mxCell id="0" />
        <mxCell id="1" parent="0" />
        <mxCell id="wiK8LtcWPlEBfqKX4ATi-7" value="&lt;h1&gt;&lt;br&gt;&lt;/h1&gt;" style="rounded=0;whiteSpace=wrap;html=1;fontSize=14;align=center;" vertex="1" parent="1">
          <mxGeometry x="40" y="80" width="720" height="320" as="geometry" />
        </mxCell>
        <mxCell id="wiK8LtcWPlEBfqKX4ATi-2" value="&lt;b&gt;&lt;font style=&quot;font-size: 14px&quot;&gt;node0.ilse.nl&lt;/font&gt;&lt;/b&gt;&lt;br&gt;&lt;span&gt;83.161.147.149&lt;/span&gt;&lt;br&gt;&lt;span&gt;1f0366a40a412361fad829c655dd633ce2ff40db&lt;/span&gt;" style="rounded=0;whiteSpace=wrap;html=1;fillColor=#fff2cc;strokeColor=#d6b656;" vertex="1" parent="1">
          <mxGeometry x="80" y="120" width="280" height="80" as="geometry" />
        </mxCell>
        <mxCell id="wiK8LtcWPlEBfqKX4ATi-3" value="&lt;b&gt;&lt;font style=&quot;font-size: 14px&quot;&gt;node1.ilse.nl&lt;/font&gt;&lt;/b&gt;&lt;br&gt;149.210.250.146&lt;br&gt;&lt;span&gt;1f0366a40a412361fad829c655dd633ce2ff40db&lt;/span&gt;" style="rounded=0;whiteSpace=wrap;html=1;fillColor=#fff2cc;strokeColor=#d6b656;" vertex="1" parent="1">
          <mxGeometry x="440" y="120" width="280" height="80" as="geometry" />
        </mxCell>
        <mxCell id="wiK8LtcWPlEBfqKX4ATi-4" value="&lt;b&gt;&lt;font style=&quot;font-size: 14px&quot;&gt;node2.ilse.nl&lt;/font&gt;&lt;/b&gt;&lt;br&gt;149.210.250.238&lt;br&gt;3ce5b9dcce530244804b2ce889e4f7ecdffaa89f" style="rounded=0;whiteSpace=wrap;html=1;fillColor=#fff2cc;strokeColor=#d6b656;" vertex="1" parent="1">
          <mxGeometry x="80" y="280" width="280" height="80" as="geometry" />
        </mxCell>
        <mxCell id="wiK8LtcWPlEBfqKX4ATi-5" value="&lt;b&gt;&lt;font style=&quot;font-size: 14px&quot;&gt;node3.ilse.nl&lt;/font&gt;&lt;/b&gt;&lt;br&gt;149.210.250.238&lt;br&gt;2c844d174da4c36de030932d79bc708f3d1cfd6d" style="rounded=0;whiteSpace=wrap;html=1;fillColor=#fff2cc;strokeColor=#d6b656;" vertex="1" parent="1">
          <mxGeometry x="440" y="280" width="280" height="80" as="geometry" />
        </mxCell>
        <mxCell id="wiK8LtcWPlEBfqKX4ATi-9" value="" style="endArrow=classic;startArrow=classic;html=1;rounded=0;fontSize=24;entryX=0.5;entryY=1;entryDx=0;entryDy=0;" edge="1" parent="1" source="wiK8LtcWPlEBfqKX4ATi-4" target="wiK8LtcWPlEBfqKX4ATi-2">
          <mxGeometry width="50" height="50" relative="1" as="geometry">
            <mxPoint x="390" y="420" as="sourcePoint" />
            <mxPoint x="440" y="370" as="targetPoint" />
          </mxGeometry>
        </mxCell>
        <mxCell id="wiK8LtcWPlEBfqKX4ATi-10" value="" style="endArrow=classic;startArrow=classic;html=1;rounded=0;fontSize=24;entryX=0;entryY=0.5;entryDx=0;entryDy=0;exitX=1;exitY=0.5;exitDx=0;exitDy=0;" edge="1" parent="1" source="wiK8LtcWPlEBfqKX4ATi-4" target="wiK8LtcWPlEBfqKX4ATi-5">
          <mxGeometry width="50" height="50" relative="1" as="geometry">
            <mxPoint x="230" y="290" as="sourcePoint" />
            <mxPoint x="230" y="210" as="targetPoint" />
          </mxGeometry>
        </mxCell>
        <mxCell id="wiK8LtcWPlEBfqKX4ATi-11" value="" style="endArrow=classic;startArrow=classic;html=1;rounded=0;fontSize=24;entryX=0;entryY=0.5;entryDx=0;entryDy=0;exitX=1;exitY=0.5;exitDx=0;exitDy=0;" edge="1" parent="1">
          <mxGeometry width="50" height="50" relative="1" as="geometry">
            <mxPoint x="360" y="159.5" as="sourcePoint" />
            <mxPoint x="440" y="159.5" as="targetPoint" />
          </mxGeometry>
        </mxCell>
        <mxCell id="wiK8LtcWPlEBfqKX4ATi-12" value="" style="endArrow=classic;startArrow=classic;html=1;rounded=0;fontSize=24;entryX=0.5;entryY=0;entryDx=0;entryDy=0;exitX=0.5;exitY=1;exitDx=0;exitDy=0;" edge="1" parent="1" source="wiK8LtcWPlEBfqKX4ATi-3" target="wiK8LtcWPlEBfqKX4ATi-5">
          <mxGeometry width="50" height="50" relative="1" as="geometry">
            <mxPoint x="370" y="169.5" as="sourcePoint" />
            <mxPoint x="450" y="169.5" as="targetPoint" />
          </mxGeometry>
        </mxCell>
        <mxCell id="wiK8LtcWPlEBfqKX4ATi-13" value="" style="endArrow=classic;startArrow=classic;html=1;rounded=0;fontSize=24;entryX=0;entryY=0;entryDx=0;entryDy=0;exitX=1;exitY=1;exitDx=0;exitDy=0;" edge="1" parent="1" source="wiK8LtcWPlEBfqKX4ATi-2" target="wiK8LtcWPlEBfqKX4ATi-5">
          <mxGeometry width="50" height="50" relative="1" as="geometry">
            <mxPoint x="590" y="210" as="sourcePoint" />
            <mxPoint x="590" y="290" as="targetPoint" />
          </mxGeometry>
        </mxCell>
        <mxCell id="wiK8LtcWPlEBfqKX4ATi-14" value="" style="endArrow=classic;startArrow=classic;html=1;rounded=0;fontSize=24;entryX=1;entryY=0;entryDx=0;entryDy=0;exitX=0;exitY=1;exitDx=0;exitDy=0;" edge="1" parent="1" source="wiK8LtcWPlEBfqKX4ATi-3" target="wiK8LtcWPlEBfqKX4ATi-4">
          <mxGeometry width="50" height="50" relative="1" as="geometry">
            <mxPoint x="370" y="210" as="sourcePoint" />
            <mxPoint x="450.0000000000002" y="290" as="targetPoint" />
          </mxGeometry>
        </mxCell>
        <mxCell id="wiK8LtcWPlEBfqKX4ATi-15" value="Ilse testnet" style="text;html=1;strokeColor=none;fillColor=none;align=center;verticalAlign=middle;whiteSpace=wrap;rounded=0;fontSize=24;" vertex="1" parent="1">
          <mxGeometry x="320" y="50" width="160" height="30" as="geometry" />
        </mxCell>
      </root>
    </mxGraphModel>
  </diagram>
</mxfile>
